<?xml version="1.0" encoding="utf-8"?>
<!-- Generator: Adobe Illustrator 16.0.4, SVG Export Plug-In . SVG Version: 6.00 Build 0)  -->
<!DOCTYPE svg PUBLIC "-//W3C//DTD SVG 1.1//EN" "http://www.w3.org/Graphics/SVG/1.1/DTD/svg11.dtd">
<svg version="1.1" id="Ebene_1" xmlns="http://www.w3.org/2000/svg" xmlns:xlink="http://www.w3.org/1999/xlink" x="0px" y="0px"
	 width="388.451px" height="388.449px" viewBox="0 0 388.451 388.449" enable-background="new 0 0 388.451 388.449"
	 xml:space="preserve">
<g>
	<g>
		<rect fill="#FF0000" width="388.451" height="388.449"/>
		<g>
			<path fill="#FFFFFF" d="M69.913,153.344H34.59V99.718h35.323v9.338H45.059v12.579h21.165v9.34H45.059v13.029h24.854V153.344z"/>
			<path fill="#FFFFFF" d="M90.627,153.344H80.159V99.718h10.469V153.344z"/>
			<path fill="#FFFFFF" d="M144.178,153.344h-9.34l-21.24-32.916v32.916h-10.469V99.718h9.34l21.24,32.838V99.718h10.469V153.344z"
				/>
			<path fill="#FFFFFF" d="M191.401,137.526c0,5.071-1.869,9.05-5.611,11.939c-3.742,2.888-8.499,4.33-14.271,4.33
				c-8.388,0-14.913-2.361-19.584-7.081l6.777-6.779c3.015,3.015,7.332,4.521,12.958,4.521c6.326,0,9.489-2.207,9.489-6.629
				c0-2.007-0.528-3.502-1.581-4.481c-1.055-0.979-2.664-1.618-4.822-1.919l-6.477-0.904c-9.491-1.306-14.233-6.303-14.233-14.988
				c0-4.871,1.682-8.8,5.045-11.787c3.363-2.989,7.908-4.484,13.632-4.484c7.229,0,13.004,2.086,17.325,6.252l-6.631,6.555
				c-2.561-2.459-6.227-3.691-10.994-3.691c-2.661,0-4.707,0.642-6.141,1.92c-1.429,1.282-2.146,2.901-2.146,4.857
				c0,1.561,0.565,2.863,1.696,3.919c1.129,1.055,2.748,1.732,4.858,2.032l6.325,0.903c4.567,0.655,7.984,2.033,10.244,4.145
				C190.022,128.765,191.401,132.556,191.401,137.526z"/>
			<path fill="#FFFFFF" d="M235.689,109.056h-14.009v44.288h-10.472v-44.288H197.2v-9.338h38.489V109.056z"/>
			<path fill="#FFFFFF" d="M279.523,153.344h-35.325V99.718h35.325v9.338h-24.857v12.579h21.166v9.34h-21.166v13.029h24.857V153.344
				z"/>
			<path fill="#FFFFFF" d="M300.236,153.344h-10.469V99.718h10.469V153.344z"/>
			<path fill="#FFFFFF" d="M353.785,153.344h-9.34l-21.238-32.916v32.916h-10.469V99.718h9.338l21.24,32.838V99.718h10.469V153.344z
				"/>
		</g>
		<g>
			<path fill="#FFFFFF" d="M73.7,204.556c-0.899,5.449-3.177,9.648-6.823,12.598c-3.45,2.851-7.727,4.274-12.822,4.274
				c-5.701,0-10.499-1.949-14.397-5.848c-2.399-2.401-3.949-5.474-4.651-9.224c-0.399-2.199-0.599-6.225-0.599-12.072
				c0-5.849,0.2-9.873,0.599-12.074c0.702-3.748,2.252-6.823,4.651-9.222c3.898-3.898,8.696-5.849,14.397-5.849
				c5.146,0,9.484,1.45,13.009,4.349c3.525,2.899,5.737,7.075,6.636,12.523H63.125c-1.248-5.05-4.247-7.574-8.997-7.574
				c-3.148,0-5.572,1.177-7.274,3.524c-1.349,1.899-2.022,6.672-2.022,14.322c0,4.148,0.048,6.746,0.149,7.797
				c0.348,3.349,1.174,5.772,2.475,7.272c1.651,1.853,3.873,2.777,6.673,2.777c4.75,0,7.749-2.525,8.997-7.575H73.7z"/>
			<path fill="#FFFFFF" d="M117.862,220.979H82.699V167.59h35.163v9.297H93.12v12.524h21.071v9.296H93.12v12.972h24.743V220.979z"/>
			<path fill="#FFFFFF" d="M168.928,220.979h-9.297l-21.147-32.771v32.771h-10.42V167.59h9.297l21.145,32.693V167.59h10.423V220.979
				z"/>
			<path fill="#FFFFFF" d="M215.717,176.887h-13.949v44.092h-10.42v-44.092h-13.945v-9.297h38.315V176.887z"/>
			<path fill="#FFFFFF" d="M259.355,220.979h-35.166V167.59h35.166v9.297h-24.742v12.524h21.068v9.296h-21.068v12.972h24.742
				V220.979z"/>
			<path fill="#FFFFFF" d="M309.971,220.979h-12.074l-10.422-21.296h-7.496v21.296h-10.424V167.59h20.92
				c5.297,0,9.547,1.601,12.748,4.797c3.045,3.051,4.57,6.899,4.57,11.55c0,3.55-0.975,6.598-2.924,9.146
				c-1.748,2.253-4.023,3.876-6.822,4.876L309.971,220.979z M297.371,183.898c0-2.088-0.697-3.78-2.098-5.073
				c-1.4-1.292-3.227-1.938-5.473-1.938h-9.822v14.024h9.822c2.246,0,4.072-0.647,5.473-1.939
				C296.674,187.679,297.371,185.986,297.371,183.898z"/>
		</g>
	</g>
	<g>
		<path fill="#FFFFFF" d="M56.714,264.599c0,3.428-0.086,5.674-0.259,6.739c-0.375,2.361-1.325,4.306-2.851,5.832
			c-1.959,1.959-4.666,2.938-8.122,2.938H34.38v-30.759h11.103c3.456,0,6.163,0.979,8.122,2.938
			c1.526,1.526,2.477,3.427,2.851,5.702C56.628,259.025,56.714,261.229,56.714,264.599z M50.709,264.599
			c0-2.477-0.072-4.219-0.216-5.228c-0.173-1.181-0.533-2.102-1.08-2.765c-1.037-1.267-2.535-1.9-4.493-1.9h-4.536v20.045h4.536
			c1.958,0,3.456-0.634,4.493-1.901c0.547-0.662,0.907-1.627,1.08-2.895C50.637,268.891,50.709,267.104,50.709,264.599z"/>
		<path fill="#FFFFFF" d="M68.033,253.799h-5.659v-4.579h5.659V253.799z M68.033,280.107h-5.659v-22.507h5.659V280.107z"/>
		<path fill="#FFFFFF" d="M92.009,279.287c0,2.735-0.9,4.975-2.7,6.717c-1.8,1.742-4.198,2.614-7.193,2.614
			c-3.398,0-6.12-0.979-8.165-2.938l3.499-3.543c1.181,1.151,2.649,1.729,4.406,1.729c1.556,0,2.736-0.49,3.542-1.469
			c0.662-0.836,0.994-1.901,0.994-3.197v-2.29c-1.354,1.498-3.139,2.247-5.357,2.247c-2.246,0-4.032-0.662-5.356-1.987
			c-0.979-0.979-1.627-2.246-1.944-3.802c-0.23-1.123-0.345-2.836-0.345-5.141c0-2.304,0.115-4.018,0.345-5.141
			c0.317-1.526,0.965-2.779,1.944-3.759c1.324-1.324,3.125-1.987,5.4-1.987c2.247,0,4.075,0.793,5.486,2.376v-2.116h5.443V279.287z
			 M86.393,268.228c0-1.757-0.186-3.053-0.558-3.888c-0.544-1.297-1.59-1.944-3.135-1.944c-1.489,0-2.505,0.604-3.049,1.814
			c-0.401,0.836-0.601,2.175-0.601,4.018c0,1.844,0.2,3.196,0.601,4.061c0.544,1.21,1.56,1.814,3.049,1.814
			c1.545,0,2.591-0.647,3.135-1.944C86.207,271.295,86.393,269.984,86.393,268.228z"/>
		<path fill="#FFFFFF" d="M103.888,253.799h-5.659v-4.579h5.659V253.799z M103.888,280.107h-5.659v-22.507h5.659V280.107z"/>
		<path fill="#FFFFFF" d="M120.304,280.107h-3.067c-2.131,0-3.787-0.677-4.968-2.03c-1.037-1.181-1.555-2.649-1.555-4.406v-11.146
			h-2.376v-4.277h2.376v-6.652h5.659v6.652h3.931v4.277h-3.931v10.8c0,1.354,0.641,2.03,1.923,2.03h2.008V280.107z"/>
		<path fill="#FFFFFF" d="M142.422,280.107h-5.487v-1.944c-1.44,1.44-3.283,2.16-5.529,2.16c-2.535,0-4.436-0.647-5.703-1.943
			c-1.268-1.297-1.9-2.995-1.9-5.098c0-1.901,0.652-3.463,1.958-4.688c1.306-1.224,3.208-1.836,5.705-1.836h5.296v-1.123
			c0-2.361-1.392-3.543-4.176-3.543c-1.808,0-3.243,0.62-4.304,1.857l-3.573-3.499c1.065-1.181,2.232-2.001,3.5-2.462
			c1.151-0.433,2.692-0.648,4.623-0.648c6.394,0,9.59,2.65,9.59,7.949V280.107z M136.763,271.813v-1.21h-4.425
			c-2.09,0-3.135,0.85-3.135,2.549c0,1.728,1.074,2.592,3.222,2.592c1.918,0,3.192-0.476,3.822-1.426
			C136.591,273.8,136.763,272.965,136.763,271.813z"/>
		<path fill="#FFFFFF" d="M157.974,280.107h-3.197c-2.16,0-3.831-0.677-5.011-2.03c-1.037-1.181-1.555-2.649-1.555-4.406v-24.322
			h5.659v23.977c0,1.354,0.656,2.03,1.966,2.03h2.138V280.107z"/>
		<path fill="#FFFFFF" d="M193.182,254.706h-14.256v7.56h12.139v5.357h-12.139v12.484h-6.005v-30.759h20.261V254.706z"/>
		<path fill="#FFFFFF" d="M216.466,280.107h-5.486v-2.073c-1.469,1.555-3.341,2.332-5.616,2.332c-2.218,0-3.989-0.662-5.314-1.986
			c-1.527-1.526-2.29-3.657-2.29-6.395v-14.385h5.659v13.607c0,1.412,0.398,2.478,1.195,3.197c0.655,0.604,1.48,0.907,2.477,0.907
			c1.024,0,1.865-0.303,2.52-0.907c0.796-0.72,1.195-1.785,1.195-3.197v-13.607h5.659V280.107z"/>
		<path fill="#FFFFFF" d="M232.882,280.107h-3.067c-2.131,0-3.787-0.677-4.968-2.03c-1.037-1.181-1.555-2.649-1.555-4.406v-11.146
			h-2.376v-4.277h2.376v-6.652h5.659v6.652h3.931v4.277h-3.931v10.8c0,1.354,0.641,2.03,1.923,2.03h2.008V280.107z"/>
		<path fill="#FFFFFF" d="M256.427,280.107h-5.487v-2.073c-1.469,1.555-3.341,2.332-5.616,2.332c-2.218,0-3.989-0.662-5.314-1.986
			c-1.527-1.526-2.29-3.657-2.29-6.395v-14.385h5.659v13.607c0,1.412,0.398,2.478,1.195,3.197c0.655,0.604,1.48,0.907,2.477,0.907
			c1.024,0,1.865-0.303,2.52-0.907c0.796-0.72,1.195-1.785,1.195-3.197v-13.607h5.66V280.107z"/>
		<path fill="#FFFFFF" d="M279.149,259.458l-4.234,4.276c-0.893-0.893-1.887-1.339-2.98-1.339c-0.949,0-1.771,0.331-2.463,0.993
			c-0.777,0.778-1.166,1.83-1.166,3.154v13.564h-5.615v-22.507h5.486v2.159c1.354-1.612,3.24-2.419,5.658-2.419
			C275.966,257.341,277.737,258.047,279.149,259.458z"/>
		<path fill="#FFFFFF" d="M300.835,270.604h-14.084c0,1.498,0.439,2.707,1.318,3.629s2.08,1.382,3.607,1.382
			c1.986,0,3.686-0.705,5.098-2.116l3.412,3.326c-1.238,1.238-2.447,2.117-3.629,2.635c-1.354,0.605-2.994,0.907-4.924,0.907
			c-6.941,0-10.412-3.845-10.412-11.534c0-3.6,0.908-6.437,2.723-8.51c1.756-1.987,4.117-2.981,7.084-2.981
			c3.053,0,5.473,1.022,7.258,3.067c1.699,1.959,2.549,4.521,2.549,7.689V270.604z M295.306,266.759
			c-0.029-0.922-0.201-1.729-0.52-2.419c-0.689-1.556-1.943-2.333-3.758-2.333s-3.066,0.777-3.758,2.333
			c-0.318,0.69-0.49,1.497-0.52,2.419H295.306z"/>
	</g>
</g>
</svg>
